<svg xmlns="http://www.w3.org/2000/svg" viewBox="0 0 120 120" width="120" height="120">
<defs>
<linearGradient id="zm" x1="0" y1="0" x2="0" y2="1"><stop offset="0" stop-color="#1B2E57"/><stop offset="1" stop-color="#0B1426"/></linearGradient>
<linearGradient id="au" x1="0" y1="0" x2="0" y2="1"><stop offset="0" stop-color="#F0D99A"/><stop offset="1" stop-color="#B8923A"/></linearGradient>
</defs>
<rect width="120" height="120" rx="26" fill="url(#zm)"/>
<!-- anten degil: mezuniyet kepi -->
<path d="M60 17 L97 30 L60 43 L23 30 Z" fill="url(#au)"/>
<path d="M40 38 V47 Q60 55 80 47 V38 L60 45 Z" fill="#B8923A"/>
<path d="M93 31 V47" stroke="#F0D99A" stroke-width="3.5" stroke-linecap="round"/><circle cx="93" cy="50" r="4" fill="#F0D99A"/>
<!-- kafa -->
<rect x="28" y="52" width="64" height="46" rx="15" fill="none" stroke="url(#au)" stroke-width="5.5"/>
<!-- kulaklar -->
<rect x="20" y="67" width="8" height="15" rx="3.5" fill="#B8923A"/><rect x="92" y="67" width="8" height="15" rx="3.5" fill="#B8923A"/>
<!-- gozler ve gulus -->
<circle cx="47" cy="72" r="6.5" fill="#F0D99A"/><circle cx="73" cy="72" r="6.5" fill="#F0D99A"/>
<circle cx="49" cy="70" r="2" fill="#0B1426"/><circle cx="75" cy="70" r="2" fill="#0B1426"/>
<path d="M46 86 Q60 96 74 86" fill="none" stroke="#F0D99A" stroke-width="4.5" stroke-linecap="round"/>
</svg>
